<svg width="649" height="560" viewBox="0 0 649 560" fill="none" xmlns="http://www.w3.org/2000/svg">
<g clip-path="url(#clip0_402_7)">
<path d="M463.533 316.135C464.005 316.175 464.461 316.33 464.862 316.584C465.262 316.839 465.595 317.186 465.832 317.597C466.069 318.008 466.204 318.47 466.224 318.944C466.245 319.418 466.15 319.89 465.949 320.32L328.16 558.615C327.903 559.027 327.547 559.369 327.126 559.611C326.704 559.853 326.229 559.986 325.743 560H241.507C241.018 560.001 240.537 559.872 240.113 559.627C239.689 559.381 239.338 559.028 239.096 558.602C238.853 558.177 238.727 557.695 238.732 557.205C238.736 556.716 238.87 556.236 239.12 555.815L376.909 317.52C377.152 317.101 377.499 316.752 377.918 316.509C378.337 316.266 378.813 316.137 379.297 316.135H463.533ZM381.625 247.844C381.139 247.83 380.665 247.697 380.243 247.455C379.821 247.213 379.466 246.871 379.208 246.459L239.12 4.18526C238.87 3.76424 238.736 3.28447 238.732 2.79482C238.727 2.30516 238.853 1.82312 239.096 1.39778C239.338 0.972438 239.689 0.619001 240.113 0.373464C240.537 0.127927 241.018 -0.000936677 241.507 -2.58716e-06H325.743C326.229 0.0137262 326.704 0.147388 327.126 0.389079C327.547 0.63077 327.903 0.972989 328.16 1.38526L468.248 243.659C468.498 244.08 468.632 244.56 468.637 245.049C468.641 245.539 468.516 246.021 468.273 246.446C468.03 246.872 467.679 247.225 467.256 247.471C466.832 247.716 466.351 247.845 465.861 247.844H381.625Z" fill="#E31337"/>
<path d="M398.278 4.18526C398.019 3.75121 397.883 3.25447 397.886 2.74886C397.889 2.24324 398.03 1.74804 398.294 1.3169C398.558 0.885768 398.935 0.535138 399.384 0.303004C399.833 0.0708698 400.338 -0.0339159 400.842 2.786e-08H485.196C485.681 -0.000901642 486.157 0.126845 486.577 0.370206C486.996 0.613567 487.343 0.963832 487.583 1.38526L648.185 278.615C648.431 279.035 648.561 279.513 648.561 280C648.561 280.487 648.431 280.965 648.185 281.385L487.583 558.615C487.343 559.036 486.996 559.386 486.577 559.63C486.157 559.873 485.681 560.001 485.196 560H400.842C400.35 560.006 399.865 559.881 399.437 559.638C399.009 559.394 398.654 559.041 398.408 558.615C398.162 558.189 398.034 557.705 398.037 557.213C398.04 556.72 398.174 556.238 398.425 555.815L558.055 280L398.278 4.18526ZM329.722 278.585C329.981 279.033 330.117 279.542 330.117 280.059C330.117 280.576 329.981 281.085 329.722 281.533L168.383 558.615C168.112 559.01 167.75 559.333 167.326 559.556C166.902 559.78 166.431 559.896 165.952 559.896C165.473 559.896 165.001 559.78 164.577 559.556C164.154 559.333 163.791 559.01 163.52 558.615L0.383154 281.415C0.124468 280.967 -0.0117187 280.458 -0.0117188 279.941C-0.0117188 279.424 0.124468 278.915 0.383154 278.467L161.722 1.38526C161.993 0.990137 162.356 0.666923 162.779 0.443593C163.203 0.220264 163.675 0.103549 164.154 0.103549C164.633 0.103549 165.104 0.220264 165.528 0.443593C165.952 0.666923 166.315 0.990137 166.585 1.38526L329.722 278.585Z" fill="#E31337"/>
</g>
<defs>
<clipPath id="clip0_402_7">
<rect width="648.421" height="560" fill="white"/>
</clipPath>
</defs>
</svg>
